<svg xmlns="http://www.w3.org/2000/svg" width="67.997" height="67.434" viewBox="0 0 67.997 67.434"><g id="Grupo_185" data-name="Grupo 185" transform="translate(0 0)"><g id="Grupo_189" data-name="Grupo 189" transform="translate(0 0)"><path id="Trazado_120" data-name="Trazado 120" d="M3.307,1.653A1.653,1.653,0,1,1,1.654,0,1.652,1.652,0,0,1,3.307,1.653" transform="translate(0 0)" fill="#dd3c3c"></path><path id="Trazado_121" data-name="Trazado 121" d="M30.827,1.653A1.653,1.653,0,1,1,29.174,0a1.652,1.652,0,0,1,1.652,1.653" transform="translate(-5.957 0)" fill="#dd3c3c"></path><path id="Trazado_122" data-name="Trazado 122" d="M58.348,1.653A1.653,1.653,0,1,1,56.7,0a1.652,1.652,0,0,1,1.653,1.653" transform="translate(-11.914 0)" fill="#dd3c3c"></path><path id="Trazado_123" data-name="Trazado 123" d="M85.868,1.653A1.654,1.654,0,1,1,84.215,0a1.653,1.653,0,0,1,1.653,1.653" transform="translate(-17.871 0)" fill="#dd3c3c"></path><path id="Trazado_124" data-name="Trazado 124" d="M3.307,28.934a1.653,1.653,0,1,1-1.652-1.652,1.652,1.652,0,0,1,1.652,1.652" transform="translate(0 -5.905)" fill="#dd3c3c"></path><path id="Trazado_125" data-name="Trazado 125" d="M30.827,28.934a1.653,1.653,0,1,1-1.652-1.652,1.652,1.652,0,0,1,1.652,1.652" transform="translate(-5.957 -5.905)" fill="#dd3c3c"></path><path id="Trazado_126" data-name="Trazado 126" d="M58.348,28.934A1.653,1.653,0,1,1,56.7,27.282a1.652,1.652,0,0,1,1.653,1.652" transform="translate(-11.914 -5.905)" fill="#dd3c3c"></path><path id="Trazado_127" data-name="Trazado 127" d="M85.868,28.934a1.654,1.654,0,1,1-1.653-1.652,1.653,1.653,0,0,1,1.653,1.652" transform="translate(-17.871 -5.905)" fill="#dd3c3c"></path><path id="Trazado_128" data-name="Trazado 128" d="M3.307,56.216a1.653,1.653,0,1,1-1.652-1.652,1.652,1.652,0,0,1,1.652,1.652" transform="translate(0 -11.811)" fill="#dd3c3c"></path><path id="Trazado_129" data-name="Trazado 129" d="M30.827,56.216a1.653,1.653,0,1,1-1.652-1.652,1.652,1.652,0,0,1,1.652,1.652" transform="translate(-5.957 -11.811)" fill="#dd3c3c"></path><path id="Trazado_130" data-name="Trazado 130" d="M58.348,56.216A1.653,1.653,0,1,1,56.7,54.563a1.652,1.652,0,0,1,1.653,1.652" transform="translate(-11.914 -11.811)" fill="#dd3c3c"></path><path id="Trazado_131" data-name="Trazado 131" d="M85.868,56.216a1.654,1.654,0,1,1-1.653-1.652,1.653,1.653,0,0,1,1.653,1.652" transform="translate(-17.871 -11.811)" fill="#dd3c3c"></path><path id="Trazado_132" data-name="Trazado 132" d="M3.307,83.5a1.653,1.653,0,1,1-1.652-1.653A1.653,1.653,0,0,1,3.307,83.5" transform="translate(0 -17.716)" fill="#dd3c3c"></path><path id="Trazado_133" data-name="Trazado 133" d="M30.827,83.5a1.653,1.653,0,1,1-1.652-1.653A1.653,1.653,0,0,1,30.827,83.5" transform="translate(-5.957 -17.716)" fill="#dd3c3c"></path><path id="Trazado_134" data-name="Trazado 134" d="M58.348,83.5A1.653,1.653,0,1,1,56.7,81.843,1.653,1.653,0,0,1,58.348,83.5" transform="translate(-11.914 -17.716)" fill="#dd3c3c"></path><path id="Trazado_135" data-name="Trazado 135" d="M85.868,83.5a1.654,1.654,0,1,1-1.653-1.653A1.654,1.654,0,0,1,85.868,83.5" transform="translate(-17.871 -17.716)" fill="#dd3c3c"></path></g></g></svg>