<svg xmlns="http://www.w3.org/2000/svg" width="64.461" height="24.953" viewBox="0 0 64.461 24.953"><g id="Grupo_187" data-name="Grupo 187" transform="translate(179.461 117.001)"><g id="Grupo_188" data-name="Grupo 188"><path id="Trazado_136" data-name="Trazado 136" d="M63.17,3.862l1.291-1.7a11.374,11.374,0,0,0-13.7.27,9.2,9.2,0,0,1-11.493,0,11.387,11.387,0,0,0-14.072,0,9.194,9.194,0,0,1-11.492,0A11.372,11.372,0,0,0,0,2.163l1.289,1.7A9.379,9.379,0,0,1,6.666,2.114a9.469,9.469,0,0,1,5.747,2.017,11.589,11.589,0,0,0,7.034,2.434,11.59,11.59,0,0,0,7.036-2.434,9.2,9.2,0,0,1,11.494,0,11.387,11.387,0,0,0,14.07,0A9.17,9.17,0,0,1,63.17,3.862" transform="translate(-179.461 -117)" fill="#dd3c3c"></path><path id="Trazado_137" data-name="Trazado 137" d="M1.289,13.055a9.176,9.176,0,0,1,11.124.269,11.387,11.387,0,0,0,14.07,0,9.2,9.2,0,0,1,11.494,0,11.384,11.384,0,0,0,14.07,0,9.173,9.173,0,0,1,11.124-.269l1.289-1.7a11.374,11.374,0,0,0-13.7.27,9.2,9.2,0,0,1-11.494,0,11.392,11.392,0,0,0-14.071,0,9.2,9.2,0,0,1-11.493,0A11.371,11.371,0,0,0,0,11.357Z" transform="translate(-179.461 -117)" fill="#dd3c3c"></path><path id="Trazado_138" data-name="Trazado 138" d="M37.977,22.517a11.378,11.378,0,0,0,14.07,0,9.173,9.173,0,0,1,11.124-.268l1.289-1.7a11.375,11.375,0,0,0-13.7.271,9.2,9.2,0,0,1-11.494,0,11.389,11.389,0,0,0-14.07,0,9.2,9.2,0,0,1-11.493,0A11.371,11.371,0,0,0,0,20.549l1.289,1.7a9.173,9.173,0,0,1,11.125.269,11.389,11.389,0,0,0,14.07,0,9.2,9.2,0,0,1,11.493,0" transform="translate(-179.461 -117)" fill="#dd3c3c"></path></g></g></svg>