<svg xmlns="http://www.w3.org/2000/svg" id="_004-grafico-de-lineas" data-name="004-grafico-de-lineas" width="73.71" height="73.576" viewBox="0 0 73.71 73.576"><g id="Grupo_83" data-name="Grupo 83" transform="translate(4.022 0)"><g id="Grupo_82" data-name="Grupo 82"><path id="Trazado_58" data-name="Trazado 58" d="M96.248,68.827H28.463V1.042a.59.59,0,0,0-1.179,0V69.416a.59.59,0,0,0,.59.59H96.248a.59.59,0,0,0,0-1.179Z" transform="translate(-27.284 -0.452)" fill="#dd3c3c"></path></g></g><g id="Grupo_85" data-name="Grupo 85" transform="translate(4.022 68.375)"><g id="Grupo_84" data-name="Grupo 84"><path id="Trazado_59" data-name="Trazado 59" d="M27.874,464.268a.59.59,0,0,0-.59.59v4.022a.59.59,0,0,0,1.179,0v-4.022A.59.59,0,0,0,27.874,464.268Z" transform="translate(-27.284 -464.268)" fill="#dd3c3c"></path></g></g><g id="Grupo_87" data-name="Grupo 87" transform="translate(10.342 68.375)"><g id="Grupo_86" data-name="Grupo 86"><path id="Trazado_60" data-name="Trazado 60" d="M70.746,464.268a.59.59,0,0,0-.59.59v4.022a.59.59,0,0,0,1.179,0v-4.022A.59.59,0,0,0,70.746,464.268Z" transform="translate(-70.156 -464.268)" fill="#dd3c3c"></path></g></g><g id="Grupo_89" data-name="Grupo 89" transform="translate(16.663 68.375)"><g id="Grupo_88" data-name="Grupo 88"><path id="Trazado_61" data-name="Trazado 61" d="M113.622,464.268a.59.59,0,0,0-.59.59v4.022a.59.59,0,0,0,1.179,0v-4.022A.59.59,0,0,0,113.622,464.268Z" transform="translate(-113.032 -464.268)" fill="#dd3c3c"></path></g></g><g id="Grupo_91" data-name="Grupo 91" transform="translate(22.983 68.375)"><g id="Grupo_90" data-name="Grupo 90"><path id="Trazado_62" data-name="Trazado 62" d="M156.494,464.268a.59.59,0,0,0-.59.59v4.022a.59.59,0,0,0,1.179,0v-4.022A.589.589,0,0,0,156.494,464.268Z" transform="translate(-155.904 -464.268)" fill="#dd3c3c"></path></g></g><g id="Grupo_93" data-name="Grupo 93" transform="translate(29.303 68.375)"><g id="Grupo_92" data-name="Grupo 92"><path id="Trazado_63" data-name="Trazado 63" d="M199.366,464.268a.589.589,0,0,0-.59.59v4.022a.59.59,0,0,0,1.179,0v-4.022A.59.59,0,0,0,199.366,464.268Z" transform="translate(-198.776 -464.268)" fill="#dd3c3c"></path></g></g><g id="Grupo_95" data-name="Grupo 95" transform="translate(35.624 68.375)"><g id="Grupo_94" data-name="Grupo 94"><path id="Trazado_64" data-name="Trazado 64" d="M242.242,464.268a.589.589,0,0,0-.59.59v4.022a.59.59,0,0,0,1.179,0v-4.022A.589.589,0,0,0,242.242,464.268Z" transform="translate(-241.652 -464.268)" fill="#dd3c3c"></path></g></g><g id="Grupo_97" data-name="Grupo 97" transform="translate(41.944 68.375)"><g id="Grupo_96" data-name="Grupo 96"><path id="Trazado_65" data-name="Trazado 65" d="M285.114,464.268a.589.589,0,0,0-.59.59v4.022a.59.59,0,0,0,1.179,0v-4.022A.59.59,0,0,0,285.114,464.268Z" transform="translate(-284.524 -464.268)" fill="#dd3c3c"></path></g></g><g id="Grupo_99" data-name="Grupo 99" transform="translate(48.264 68.375)"><g id="Grupo_98" data-name="Grupo 98"><path id="Trazado_66" data-name="Trazado 66" d="M327.986,464.268a.59.59,0,0,0-.59.59v4.022a.59.59,0,0,0,1.179,0v-4.022A.59.59,0,0,0,327.986,464.268Z" transform="translate(-327.396 -464.268)" fill="#dd3c3c"></path></g></g><g id="Grupo_101" data-name="Grupo 101" transform="translate(67.225 68.375)"><g id="Grupo_100" data-name="Grupo 100"><path id="Trazado_67" data-name="Trazado 67" d="M456.606,464.268a.589.589,0,0,0-.59.59v4.022a.59.59,0,0,0,1.179,0v-4.022A.589.589,0,0,0,456.606,464.268Z" transform="translate(-456.016 -464.268)" fill="#dd3c3c"></path></g></g><g id="Grupo_103" data-name="Grupo 103" transform="translate(54.585 68.375)"><g id="Grupo_102" data-name="Grupo 102"><path id="Trazado_68" data-name="Trazado 68" d="M370.862,464.268a.589.589,0,0,0-.59.59v4.022a.59.59,0,0,0,1.179,0v-4.022A.589.589,0,0,0,370.862,464.268Z" transform="translate(-370.272 -464.268)" fill="#dd3c3c"></path></g></g><g id="Grupo_105" data-name="Grupo 105" transform="translate(60.905 68.375)"><g id="Grupo_104" data-name="Grupo 104"><path id="Trazado_69" data-name="Trazado 69" d="M413.734,464.268a.59.59,0,0,0-.59.59v4.022a.59.59,0,0,0,1.179,0v-4.022A.59.59,0,0,0,413.734,464.268Z" transform="translate(-413.144 -464.268)" fill="#dd3c3c"></path></g></g><g id="Grupo_107" data-name="Grupo 107" transform="translate(0 68.375)"><g id="Grupo_106" data-name="Grupo 106"><path id="Trazado_70" data-name="Trazado 70" d="M4.612,464.264H.59a.59.59,0,1,0,0,1.179H4.612a.59.59,0,1,0,0-1.179Z" transform="translate(0 -464.264)" fill="#dd3c3c"></path></g></g><g id="Grupo_109" data-name="Grupo 109" transform="translate(0 62.054)"><g id="Grupo_108" data-name="Grupo 108"><path id="Trazado_71" data-name="Trazado 71" d="M4.612,421.392H.59a.59.59,0,0,0,0,1.179H4.612a.59.59,0,0,0,0-1.179Z" transform="translate(0 -421.392)" fill="#dd3c3c"></path></g></g><g id="Grupo_111" data-name="Grupo 111" transform="translate(0 55.734)"><g id="Grupo_110" data-name="Grupo 110"><path id="Trazado_72" data-name="Trazado 72" d="M4.612,378.516H.59a.59.59,0,1,0,0,1.179H4.612a.59.59,0,1,0,0-1.179Z" transform="translate(0 -378.516)" fill="#dd3c3c"></path></g></g><g id="Grupo_113" data-name="Grupo 113" transform="translate(0 49.414)"><g id="Grupo_112" data-name="Grupo 112"><path id="Trazado_73" data-name="Trazado 73" d="M4.612,335.644H.59a.59.59,0,0,0,0,1.179H4.612a.59.59,0,0,0,0-1.179Z" transform="translate(0 -335.644)" fill="#dd3c3c"></path></g></g><g id="Grupo_115" data-name="Grupo 115" transform="translate(0 43.093)"><g id="Grupo_114" data-name="Grupo 114"><path id="Trazado_74" data-name="Trazado 74" d="M4.612,292.768H.59a.59.59,0,1,0,0,1.179H4.612a.59.59,0,1,0,0-1.179Z" transform="translate(0 -292.768)" fill="#dd3c3c"></path></g></g><g id="Grupo_117" data-name="Grupo 117" transform="translate(0 36.773)"><g id="Grupo_116" data-name="Grupo 116"><path id="Trazado_75" data-name="Trazado 75" d="M4.612,249.9H.59a.59.59,0,0,0,0,1.179H4.612a.59.59,0,0,0,0-1.179Z" transform="translate(0 -249.9)" fill="#dd3c3c"></path></g></g><g id="Grupo_119" data-name="Grupo 119" transform="translate(0 30.453)"><g id="Grupo_118" data-name="Grupo 118"><path id="Trazado_76" data-name="Trazado 76" d="M4.612,207.024H.59a.59.59,0,0,0,0,1.179H4.612a.59.59,0,0,0,0-1.179Z" transform="translate(0 -207.024)" fill="#dd3c3c"></path></g></g><g id="Grupo_121" data-name="Grupo 121" transform="translate(0 24.132)"><g id="Grupo_120" data-name="Grupo 120"><path id="Trazado_77" data-name="Trazado 77" d="M4.612,164.152H.59a.59.59,0,0,0,0,1.179H4.612a.59.59,0,0,0,0-1.179Z" transform="translate(0 -164.152)" fill="#dd3c3c"></path></g></g><g id="Grupo_123" data-name="Grupo 123" transform="translate(0 5.171)"><g id="Grupo_122" data-name="Grupo 122"><path id="Trazado_78" data-name="Trazado 78" d="M4.612,35.532H.59a.59.59,0,0,0,0,1.179H4.612a.59.59,0,0,0,0-1.179Z" transform="translate(0 -35.532)" fill="#dd3c3c"></path></g></g><g id="Grupo_125" data-name="Grupo 125" transform="translate(0 17.812)"><g id="Grupo_124" data-name="Grupo 124"><path id="Trazado_79" data-name="Trazado 79" d="M4.612,121.276H.59a.59.59,0,1,0,0,1.179H4.612a.59.59,0,1,0,0-1.179Z" transform="translate(0 -121.276)" fill="#dd3c3c"></path></g></g><g id="Grupo_127" data-name="Grupo 127" transform="translate(0 11.492)"><g id="Grupo_126" data-name="Grupo 126"><path id="Trazado_80" data-name="Trazado 80" d="M4.612,78.408H.59a.59.59,0,1,0,0,1.179H4.612a.59.59,0,1,0,0-1.179Z" transform="translate(0 -78.408)" fill="#dd3c3c"></path></g></g><g id="Grupo_129" data-name="Grupo 129" transform="translate(16.05 47.013)"><g id="Grupo_128" data-name="Grupo 128"><path id="Trazado_81" data-name="Trazado 81" d="M111.8,319.36a2.928,2.928,0,1,0,2.928,2.929A2.932,2.932,0,0,0,111.8,319.36Zm0,4.677a1.749,1.749,0,1,1,1.748-1.748A1.75,1.75,0,0,1,111.8,324.037Z" transform="translate(-108.872 -319.36)" fill="#dd3c3c"></path></g></g><g id="Grupo_131" data-name="Grupo 131" transform="translate(21.292 30.314)"><g id="Grupo_130" data-name="Grupo 130"><path id="Trazado_82" data-name="Trazado 82" d="M147.36,206.084a2.928,2.928,0,1,0,2.928,2.928A2.931,2.931,0,0,0,147.36,206.084Zm0,4.676a1.748,1.748,0,1,1,1.748-1.748A1.75,1.75,0,0,1,147.36,210.76Z" transform="translate(-144.432 -206.084)" fill="#dd3c3c"></path></g></g><g id="Grupo_133" data-name="Grupo 133" transform="translate(32.279 23.99)"><g id="Grupo_132" data-name="Grupo 132"><path id="Trazado_83" data-name="Trazado 83" d="M221.892,163.184a2.928,2.928,0,1,0,2.928,2.928A2.931,2.931,0,0,0,221.892,163.184Zm0,4.676a1.748,1.748,0,1,1,1.748-1.748A1.75,1.75,0,0,1,221.892,167.86Z" transform="translate(-218.964 -163.184)" fill="#dd3c3c"></path></g></g><g id="Grupo_135" data-name="Grupo 135" transform="translate(48.296 45.589)"><g id="Grupo_134" data-name="Grupo 134"><path id="Trazado_84" data-name="Trazado 84" d="M330.54,309.7a2.928,2.928,0,1,0,2.928,2.928A2.931,2.931,0,0,0,330.54,309.7Zm0,4.677a1.749,1.749,0,1,1,1.749-1.749A1.75,1.75,0,0,1,330.54,314.377Z" transform="translate(-327.612 -309.7)" fill="#dd3c3c"></path></g></g><g id="Grupo_137" data-name="Grupo 137" transform="translate(67.853 53.864)"><g id="Grupo_136" data-name="Grupo 136"><path id="Trazado_85" data-name="Trazado 85" d="M463.2,365.832a2.928,2.928,0,1,0,2.928,2.927A2.931,2.931,0,0,0,463.2,365.832Zm0,4.676a1.748,1.748,0,1,1,1.748-1.749A1.751,1.751,0,0,1,463.2,370.508Z" transform="translate(-460.276 -365.832)" fill="#dd3c3c"></path></g></g><g id="Grupo_139" data-name="Grupo 139" transform="translate(30.459 50.364)"><g id="Grupo_138" data-name="Grupo 138"><path id="Trazado_86" data-name="Trazado 86" d="M209.54,342.092a2.928,2.928,0,1,0,2.927,2.929A2.932,2.932,0,0,0,209.54,342.092Zm0,4.677a1.749,1.749,0,1,1,1.748-1.748A1.751,1.751,0,0,1,209.54,346.769Z" transform="translate(-206.612 -342.092)" fill="#dd3c3c"></path></g></g><g id="Grupo_141" data-name="Grupo 141" transform="translate(48.296 34.334)"><g id="Grupo_140" data-name="Grupo 140"><path id="Trazado_87" data-name="Trazado 87" d="M330.54,233.352a2.928,2.928,0,1,0,2.928,2.927A2.931,2.931,0,0,0,330.54,233.352Zm0,4.677a1.749,1.749,0,1,1,1.749-1.75A1.751,1.751,0,0,1,330.54,238.029Z" transform="translate(-327.612 -233.352)" fill="#dd3c3c"></path></g></g><g id="Grupo_143" data-name="Grupo 143" transform="translate(66.06 6.663)"><g id="Grupo_142" data-name="Grupo 142"><path id="Trazado_88" data-name="Trazado 88" d="M451.036,45.652a2.927,2.927,0,1,0,2.928,2.927A2.931,2.931,0,0,0,451.036,45.652Zm0,4.676a1.748,1.748,0,1,1,1.748-1.748A1.751,1.751,0,0,1,451.036,50.328Z" transform="translate(-448.108 -45.652)" fill="#dd3c3c"></path></g></g><g id="Grupo_145" data-name="Grupo 145" transform="translate(34.566 40.187)"><g id="Grupo_144" data-name="Grupo 144"><path id="Trazado_89" data-name="Trazado 89" d="M248.251,273.26a.59.59,0,0,0-.832-.061l-12.738,10.99a.59.59,0,0,0,.771.893l12.738-10.99A.589.589,0,0,0,248.251,273.26Z" transform="translate(-234.477 -273.055)" fill="#dd3c3c"></path></g></g><g id="Grupo_147" data-name="Grupo 147" transform="translate(20.54 50.265)"><g id="Grupo_146" data-name="Grupo 146"><path id="Trazado_90" data-name="Trazado 90" d="M147.684,342.95l-7.645-1.52a.59.59,0,1,0-.23,1.156l7.645,1.52a.562.562,0,0,0,.116.012.59.59,0,0,0,.114-1.168Z" transform="translate(-139.334 -341.418)" fill="#dd3c3c"></path></g></g><g id="Grupo_149" data-name="Grupo 149" transform="translate(4.053 52.704)"><g id="Grupo_148" data-name="Grupo 148"><path id="Trazado_91" data-name="Trazado 91" d="M39.046,358.163a.59.59,0,0,0-.832-.054L27.7,367.346a.589.589,0,1,0,.778.886l10.519-9.237A.59.59,0,0,0,39.046,358.163Z" transform="translate(-27.495 -357.963)" fill="#dd3c3c"></path></g></g><g id="Grupo_151" data-name="Grupo 151" transform="translate(51.897 13.004)"><g id="Grupo_150" data-name="Grupo 150"><path id="Trazado_92" data-name="Trazado 92" d="M366.88,88.754a.588.588,0,0,0-.814.178l-13.932,21.7a.589.589,0,1,0,.992.637l13.932-21.7A.589.589,0,0,0,366.88,88.754Z" transform="translate(-352.04 -88.66)" fill="#dd3c3c"></path></g></g><g id="Grupo_153" data-name="Grupo 153" transform="translate(4.053 30.314)"><g id="Grupo_152" data-name="Grupo 152"><path id="Trazado_93" data-name="Trazado 93" d="M43.107,207.874l-14.955-1.786a.59.59,0,1,0-.14,1.171l14.955,1.786a.567.567,0,0,0,.071,0,.59.59,0,0,0,.069-1.175Z" transform="translate(-27.492 -206.083)" fill="#dd3c3c"></path></g></g><g id="Grupo_155" data-name="Grupo 155" transform="translate(25.655 28.666)"><g id="Grupo_154" data-name="Grupo 154"><path id="Trazado_94" data-name="Trazado 94" d="M180.032,195.2a.591.591,0,0,0-.8-.217l-4.9,2.82a.59.59,0,0,0,.588,1.023l4.9-2.82A.59.59,0,0,0,180.032,195.2Z" transform="translate(-174.031 -194.907)" fill="#dd3c3c"></path></g></g><g id="Grupo_157" data-name="Grupo 157" transform="translate(36.009 28.205)"><g id="Grupo_156" data-name="Grupo 156"><path id="Trazado_95" data-name="Trazado 95" d="M257.144,207.952l-11.815-15.934a.59.59,0,1,0-.948.7L256.2,208.654a.589.589,0,0,0,.474.238.589.589,0,0,0,.474-.941Z" transform="translate(-244.265 -191.781)" fill="#dd3c3c"></path></g></g><g id="Grupo_159" data-name="Grupo 159" transform="translate(52.788 48.838)"><g id="Grupo_158" data-name="Grupo 158"><path id="Trazado_96" data-name="Trazado 96" d="M372.155,337.392l-13.249-5.605a.59.59,0,1,0-.46,1.086l13.249,5.605a.59.59,0,1,0,.46-1.086Z" transform="translate(-358.085 -331.74)" fill="#dd3c3c"></path></g></g></svg>