<svg xmlns="http://www.w3.org/2000/svg" width="186.32" height="46.434" viewBox="0 0 186.32 46.434"><defs><style>.a{fill:#252d31;}.b{fill:#dd3c3c;}</style></defs><g transform="translate(39.069 14.269)"><path class="a" d="M690.752,525.462l-7.587,16.907-3.945-8.8L674.5,542.19l-7.42-16.728h3.542l4.18,9.442,2.76-5.039-1.966-4.4h3.542l4.034,9.007,4.034-9.007Z" transform="translate(-667.085 -524.769)"/><path class="a" d="M713.542,540.685a3.238,3.238,0,0,0,2.3.882,4.894,4.894,0,0,0,.9-.09,4.547,4.547,0,0,0,2.861-1.676l2.2,1.744a6.309,6.309,0,0,1-5.063,2.983,8.421,8.421,0,0,1-.961.056,6.546,6.546,0,0,1-4.816-1.944,6.6,6.6,0,0,1,7.923-10.4,5.837,5.837,0,0,1,2.973,3.644Zm4.09-5.51a3.492,3.492,0,0,0-1.855-.715c-.082-.008-.164-.011-.246-.011a3.1,3.1,0,0,0-1.531.4,3.176,3.176,0,0,0-1.721,3.006q0,.2.011.4Z" transform="translate(-685.214 -527.32)"/><path class="a" d="M733.381,541.137l8.034-16.9,8.035,16.9h-3.543l-1.262-2.659h-6.459l-1.263,2.659Zm10.091-5.129-.994-2.089q-.336-.7-1.062-2.47-.179.381-.514,1.207t-.525,1.229l-1.017,2.123Z" transform="translate(-695.733 -524.242)"/><path class="a" d="M772.717,535.429a2.828,2.828,0,0,0-2.1-.894,2.793,2.793,0,0,0-2.09.894,2.979,2.979,0,0,0-.871,2.157v6.637h-3.241V531.764h3.241v.871a3.443,3.443,0,0,1,2.961-1.252,5.814,5.814,0,0,1,4.469,1.934,6.46,6.46,0,0,1,1.3,2.089l-2.973,1.118A2.982,2.982,0,0,0,772.717,535.429Z" transform="translate(-709.143 -527.328)"/><path class="a" d="M791.331,540.685a3.238,3.238,0,0,0,2.3.882,4.892,4.892,0,0,0,.9-.09A4.548,4.548,0,0,0,797.4,539.8l2.2,1.744a6.311,6.311,0,0,1-5.063,2.983,8.417,8.417,0,0,1-.961.056,6.545,6.545,0,0,1-4.816-1.944,6.61,6.61,0,0,1,4.671-11.275,6.431,6.431,0,0,1,3.252.871,5.838,5.838,0,0,1,2.973,3.644Zm4.09-5.51a3.494,3.494,0,0,0-1.855-.715c-.082-.008-.164-.011-.246-.011a3.1,3.1,0,0,0-1.531.4,3.175,3.175,0,0,0-1.721,3.006q0,.2.011.4Z" transform="translate(-718.829 -527.32)"/><path class="a" d="M816.379,536.789q0,1.084,1.508,1.542a5.057,5.057,0,0,0,1.386.19,4.828,4.828,0,0,0,1.386-.19q1.509-.457,1.509-1.542c0-.5-.34-.909-1.017-1.229a13.678,13.678,0,0,0-2.257-.692,13.584,13.584,0,0,1-3.956-1.431,4.072,4.072,0,0,1-1.8-3.642,4.341,4.341,0,0,1,1.106-3,5.8,5.8,0,0,1,2.726-1.631,7.765,7.765,0,0,1,2.3-.335,7.953,7.953,0,0,1,2.313.335A5.8,5.8,0,0,1,824.3,526.8a4.342,4.342,0,0,1,1.107,3h-3.241q0-1.073-1.509-1.531a4.812,4.812,0,0,0-1.386-.191v-.011a4.765,4.765,0,0,0-1.386.2q-1.509.458-1.508,1.531,0,.76,1.028,1.24a13.575,13.575,0,0,0,2.246.694,13.676,13.676,0,0,1,3.956,1.419,4.09,4.09,0,0,1,1.8,3.642,4.341,4.341,0,0,1-1.107,2.995,5.755,5.755,0,0,1-2.715,1.642,7.925,7.925,0,0,1-2.313.336v-.012a7.966,7.966,0,0,1-2.3-.324,5.756,5.756,0,0,1-2.726-1.642,4.341,4.341,0,0,1-1.106-2.995Z" transform="translate(-730.198 -524.497)"/><path class="a" d="M846.053,544.593a4.89,4.89,0,0,1-3.363-1.185v4.549h-3.241V531.764h3.241v.8a4.9,4.9,0,0,1,3.363-1.185,6.6,6.6,0,1,1,0,13.209ZM842.69,538a3.567,3.567,0,0,0,.983,2.526,3.245,3.245,0,0,0,4.76,0,3.749,3.749,0,0,0,0-5.063,3.223,3.223,0,0,0-4.76,0,3.525,3.525,0,0,0-.983,2.515Z" transform="translate(-741.567 -527.328)"/><path class="a" d="M869.9,525.029a1.673,1.673,0,1,1-1.184-.491A1.617,1.617,0,0,1,869.9,525.029Zm.436,3.777v12.459h-3.241V528.806Z" transform="translate(-753.489 -524.37)"/><path class="a" d="M886.794,539.743l2.727,1.631a6.614,6.614,0,0,1-5.666,3.219,6.6,6.6,0,0,1,0-13.209,6.659,6.659,0,0,1,5.666,3.23l-2.727,1.631a3.938,3.938,0,0,0-.559-.782,3.223,3.223,0,0,0-4.76,0,3.751,3.751,0,0,0,0,5.063,3.245,3.245,0,0,0,4.76,0A3.941,3.941,0,0,0,886.794,539.743Z" transform="translate(-757.902 -527.328)"/><path class="a" d="M912.858,532.054h3.229v12.459h.011a6.367,6.367,0,0,1-1.944,4.671,6.634,6.634,0,0,1-4.895,1.934,6.739,6.739,0,0,1-4.38-1.476,6.38,6.38,0,0,1-2.3-3.776l2.872-.6a3.4,3.4,0,0,0,.95,1.71,3.627,3.627,0,0,0,2.715,1.051,3.664,3.664,0,0,0,2.721-1.045,3.469,3.469,0,0,0,1.033-2.531c0-.1,0-.2-.011-.3v-.535a4.738,4.738,0,0,1-3.487,1.274,6.494,6.494,0,0,1-4.783-1.934,6.361,6.361,0,0,1-1.933-4.67v-6.225h3.24v6.225a3.56,3.56,0,0,0,.984,2.525,3.264,3.264,0,0,0,2.491,1.051,3.3,3.3,0,0,0,2.5-1.051,3.562,3.562,0,0,0,.984-2.525Z" transform="translate(-768.846 -527.618)"/></g><path class="b" d="M603.727,514c-.157.346-.3.636-.42.934a8.8,8.8,0,0,0-.75,3.486,2.4,2.4,0,0,0,2.032,2.459,5.4,5.4,0,0,0,1.223.131,3.888,3.888,0,0,0,3.574-2.105,4.232,4.232,0,0,0,.472-1.589,9.77,9.77,0,0,0-.32-3.53c-.352-1.382-.765-2.748-1.149-4.122-.291-1.043-.6-2.081-.86-3.131a7.7,7.7,0,0,1-.122-2.346,6.71,6.71,0,0,1,.4-2.049,4.727,4.727,0,0,1,1.62-2.082,9.361,9.361,0,0,1,1.614-.943,2.831,2.831,0,0,1-.041.333,10.949,10.949,0,0,0-.439,2.774,6.554,6.554,0,0,0,.788,2.944,15.275,15.275,0,0,0,2.311,3.386c.592.666,1.214,1.3,1.827,1.951a28.369,28.369,0,0,1,4.027,5.226,16.492,16.492,0,0,1,1.583,3.5c.106.348.243.685.365,1.028a10.029,10.029,0,0,1,.494,2.27,10.812,10.812,0,0,1,.1,1.43,12.179,12.179,0,0,1-1.006,4.661,11.85,11.85,0,0,1-3.619,4.646c-.081.062-.168.116-.252.173l-.054-.031a1.016,1.016,0,0,1,.044-.2,15.153,15.153,0,0,0,.85-2.438,13.122,13.122,0,0,0,.415-2.432c.025-.4.052-.8.059-1.205a11.546,11.546,0,0,0-.978-4.837c-.421-.966-.829-1.938-1.268-2.9a6.455,6.455,0,0,0-.989-1.612,2.1,2.1,0,0,0-.458-.385.666.666,0,0,0-1.029.475,8.851,8.851,0,0,0-.028,1.2c.055,1.177.23,2.345.2,3.528a4.983,4.983,0,0,1-.909,2.742,12.732,12.732,0,0,1-3.362,3.185,15.786,15.786,0,0,0-1.684,1.245,6.082,6.082,0,0,0-1.746,3.274c-.119.54-.16,1.1-.238,1.647-.01.073-.028.144-.053.266a10.854,10.854,0,0,1-3.484-2.051,11.875,11.875,0,0,1-2.1-15.756A10.186,10.186,0,0,1,603.727,514Z" transform="translate(-598.287 -499.116)"/><path class="b" d="M620.13,567.22a5.169,5.169,0,0,1-.508.345,9.741,9.741,0,0,1-2.268.809,5.591,5.591,0,0,0-1.449.539,2.513,2.513,0,0,0-.9.826,1.054,1.054,0,0,0-.133,1.01c.233.608.443,1.224.664,1.838.019.054.042.107.06.161.13.375.064.583-.243.758a.63.63,0,0,1-.9-.138,7.531,7.531,0,0,1-1.326-2.782,1.7,1.7,0,0,1,.131-1.12,2.08,2.08,0,0,0,.177-1.066,13.587,13.587,0,0,0-.489-2.622c-.119-.454-.235-.909-.333-1.366a.834.834,0,0,1,.062-.315.793.793,0,0,1,.286.073,5.432,5.432,0,0,1,.637.536,2.012,2.012,0,0,0,1.722.537,4.451,4.451,0,0,0,.918-.209c.184-.057.255.044.316.16.148.279.281.566.418.851.083.172.165.346.244.52a.417.417,0,0,0,.379.261c.44.032.878.071,1.317.106.3.024.593.039.888.074a1.434,1.434,0,0,1,.309.109Z" transform="translate(-604.475 -527.195)"/><path class="b" d="M628.572,550.92a6.494,6.494,0,0,1-.863,3.1c-.221.424-.487.824-.746,1.227a.684.684,0,0,1-.625.345c-.273-.011-.362-.157-.237-.4a17.286,17.286,0,0,0,1.039-2.583,16.75,16.75,0,0,0,.648-2.793c.029-.208.061-.417.106-.623.014-.064.064-.159.111-.167a.216.216,0,0,1,.186.091,3.79,3.79,0,0,1,.268.75C628.526,550.212,628.537,550.568,628.572,550.92Z" transform="translate(-610.282 -520.682)"/></svg>