<svg id="Capa_1" data-name="Capa 1" xmlns="http://www.w3.org/2000/svg" viewBox="0 0 70 70"><title>08 - Servicios - Inbound MKT</title><path d="M69.69,9.9a.69.69,0,0,0-.58-.44l-8.23-.61L60.27.63A.67.67,0,0,0,59.83,0a.69.69,0,0,0-.72.16L53,6.28A4.85,4.85,0,0,0,51.6,9.57v0l.11,6.2-1.19-1A31.14,31.14,0,1,0,55,19.23L54,18l6.16.1h0a4.82,4.82,0,0,0,3.28-1.43l6.08-6.08a.69.69,0,0,0,.16-.72ZM60.71,39a29.72,29.72,0,1,1-9.88-22.09l.57.51-4,4-.5-.44a24,24,0,1,0,1.93,1.9l-.46-.51,4-4,.51.55A29.63,29.63,0,0,1,60.71,39Zm-30,.05a.71.71,0,0,0,1,0l5.11-5.1.49.7A7.62,7.62,0,1,1,35,32.5l.77.48-5.09,5.08A.67.67,0,0,0,30.72,39Zm6-7-.49-.35a9,9,0,1,0,1.86,1.79l-.39-.5,4-4,.5.6a14.67,14.67,0,1,1-2.1-2.05l.62.5Zm5.2-5.2-.5-.42a16.32,16.32,0,1,0-3,27.1l.08,0,.07,0a16.33,16.33,0,0,0,7.86-9.15l0-.07,0-.1a16.28,16.28,0,0,0-3.17-15.82l-.43-.5,4.23-4.24.54.6.16.18.06.07.31.36,0,0a22.62,22.62,0,0,1,1.86,2.62l.27.45,0,0c.08.14.16.28.23.43l0,.05.23.42,0,.05c.07.14.15.29.22.44v0c.08.16.15.31.22.47a22,22,0,0,1,2,9.19A22.41,22.41,0,0,1,38.57,60a22.31,22.31,0,0,1-26-33.48l0,0,.26-.37.07-.1a22.31,22.31,0,0,1,10.87-8.13l.15-.05.5-.16.06,0,.44-.13.14,0,.37-.1.15,0,.36-.09.16,0,.37-.08.15,0L27,17l.12,0c.35-.06.71-.12,1.06-.16h.1l.42-.05.18,0,.34,0h.21l.33,0,.21,0h1.6l.29,0h.55l.25,0,.22,0h0l.28,0,.26,0,.28,0,.25,0,.28,0,.25,0,.29,0,.24,0,.26,0,.26.05.32.07.19,0,.51.13.16,0,.35.1.2.06.3.09.22.06.28.1.2.06.3.11.21.08.28.1.21.09.28.11.2.08.29.13.18.08.33.16.14.06q.47.23.93.48l.11.06.34.19.15.09.3.17.15.1.29.18.15.1.28.18.15.1.29.2.14.1a3.15,3.15,0,0,1,.29.22l.12.08.33.25.08.07.8.65.58.51ZM53.07,15.72,53,9.6v0a3.52,3.52,0,0,1,1-2.33l5-5,.52,7Zm9.42,0a3.52,3.52,0,0,1-2.33,1h0L54,16.68,57.9,12.8l.05-.05,0,0,2.52-2.53,7,.53Z" fill="#dd403c"/></svg>