<svg xmlns="http://www.w3.org/2000/svg" width="73.71" height="73.71" viewBox="0 0 73.71 73.71"><g id="Grupo_179" data-name="Grupo 179" transform="translate(-775.29 -2903.5)"><g id="_003-pluma" data-name="003-pluma" transform="translate(775.29 2903.5)"><g id="Grupo_71" data-name="Grupo 71" transform="translate(4.947 0)"><g id="Grupo_70" data-name="Grupo 70"><path id="Trazado_52" data-name="Trazado 52" d="M101.475,3.288,99.032.845a2.9,2.9,0,0,0-4.092,0L33.73,62.056a.59.59,0,0,0,.834.834L95.774,1.679a1.717,1.717,0,0,1,2.424,0l2.442,2.443a1.72,1.72,0,0,1,0,2.424L39.43,67.757a.59.59,0,1,0,.834.834L101.475,7.379a2.9,2.9,0,0,0,0-4.091Z" transform="translate(-33.557 0.001)" fill="#dd3c3c"></path></g></g><g id="Grupo_73" data-name="Grupo 73" transform="translate(1.723 61.884)"><g id="Grupo_72" data-name="Grupo 72"><path id="Trazado_53" data-name="Trazado 53" d="M21.756,425.87a.59.59,0,0,0-.755-.354l-7.742,2.8,2.8-7.742a.59.59,0,0,0-1.109-.4l-3.224,8.924a.59.59,0,0,0,.554.79.58.58,0,0,0,.2-.035l8.924-3.223A.589.589,0,0,0,21.756,425.87Z" transform="translate(-11.687 -419.78)" fill="#dd3c3c"></path></g></g><g id="Grupo_75" data-name="Grupo 75" transform="translate(4.947 61.884)"><g id="Grupo_74" data-name="Grupo 74"><path id="Trazado_54" data-name="Trazado 54" d="M38.24,423.631l-3.677-3.677a.59.59,0,0,0-.834.834l3.677,3.677a.59.59,0,0,0,.834-.834Z" transform="translate(-33.557 -419.781)" fill="#dd3c3c"></path></g></g><g id="Grupo_77" data-name="Grupo 77" transform="translate(48.932 11.159)"><g id="Grupo_76" data-name="Grupo 76"><path id="Trazado_55" data-name="Trazado 55" d="M354.067,77.792l-1.926-1.925a.59.59,0,1,0-.834.834l1.51,1.508L332.1,98.927a.59.59,0,1,0,.834.834l21.135-21.135a.589.589,0,0,0,0-.834Z" transform="translate(-331.925 -75.694)" fill="#dd3c3c"></path></g></g><g id="Grupo_79" data-name="Grupo 79" transform="translate(0 70.807)"><g id="Grupo_78" data-name="Grupo 78"><path id="Trazado_56" data-name="Trazado 56" d="M2.73,480.487a.589.589,0,0,0-.834,0L.174,482.21a.59.59,0,1,0,.834.834l1.722-1.723A.589.589,0,0,0,2.73,480.487Z" transform="translate(-0.001 -480.314)" fill="#dd3c3c"></path></g></g><g id="Grupo_81" data-name="Grupo 81" transform="translate(53.522 13.308)"><g id="Grupo_80" data-name="Grupo 80"><path id="Trazado_57" data-name="Trazado 57" d="M367.749,94.121l-3.677-3.677a.59.59,0,1,0-.834.834l3.677,3.677a.59.59,0,0,0,.834-.834Z" transform="translate(-363.065 -90.271)" fill="#dd3c3c"></path></g></g></g></g></svg>