<svg id="Capa_1" data-name="Capa 1" xmlns="http://www.w3.org/2000/svg" viewBox="0 0 70 70"><title>01 - Cómo lo logramos - Recursos AT2</title><path d="M69.52,29.35l-5.66-1.41-.11-.45a27.94,27.94,0,0,0-3.45-8.36l-.24-.39,3-5A.65.65,0,0,0,63,13L57,7A.65.65,0,0,0,56.25,7l-5,3-.39-.24a27.94,27.94,0,0,0-8.36-3.45l-.45-.11L40.65.48A.65.65,0,0,0,40,0H31.65A.64.64,0,0,0,31,.48L29.6,6.2l-.45.11A28.51,28.51,0,0,0,20.9,9.75l-.39.25L15.42,7a.63.63,0,0,0-.33-.09.62.62,0,0,0-.44.18L8.72,13a.64.64,0,0,0-.1.78l3.1,5.15-.24.4a28.14,28.14,0,0,0-3.34,8.13L8,27.89,2.16,29.35a.64.64,0,0,0-.48.62v8.38a.63.63,0,0,0,.48.62l5.93,1.48.11.45a28.34,28.34,0,0,0,3.3,8l.31.51-10,10a6.22,6.22,0,0,0,8.8,8.8l10-10,.51.31a28.46,28.46,0,0,0,8,3.3l.45.11L31,67.84a.63.63,0,0,0,.62.48H40a.64.64,0,0,0,.62-.48L42.11,62l.45-.11a28.08,28.08,0,0,0,8.14-3.34l.4-.24,5.15,3.1a.64.64,0,0,0,.78-.1L63,55.35a.63.63,0,0,0,.09-.77l-3-5.09.25-.4a28.33,28.33,0,0,0,3.44-8.24l.11-.45L69.52,39a.64.64,0,0,0,.48-.62V30A.65.65,0,0,0,69.52,29.35ZM9.72,67.28a5,5,0,0,1-7-7l1.53-1.52,7,7Zm2.43-2.43-7-7L24.72,38.28l.46,1a11.85,11.85,0,0,0,5.57,5.57l1,.46ZM38.38,31.62a.65.65,0,0,0-.65-.16L25.35,35.59l0-1c0-.14,0-.28,0-.42A10.54,10.54,0,1,1,35.84,44.7h-.42l-1,0,4.13-12.38A.65.65,0,0,0,38.38,31.62Zm-12,4.95,10.51-3.5-3.5,10.51-.68.67-.45-.16a10.49,10.49,0,0,1-6.39-6.39l-.16-.45Zm6.71,9.1.4.08a11.77,11.77,0,1,0-9.28-9.28l.08.4-5.45,5.45-.44-1.06a18.78,18.78,0,1,1,10.3,10.3l-1.06-.44Zm35.6-7.81-5.63,1.4a.64.64,0,0,0-.46.49,26.84,26.84,0,0,1-3.92,9.37.64.64,0,0,0,0,.68l3,5L56.48,60l-5.07-3a.62.62,0,0,0-.67,0,26.74,26.74,0,0,1-9.27,3.8.64.64,0,0,0-.49.47l-1.45,5.78H32.14l-1.46-5.83a.62.62,0,0,0-.48-.47,27.2,27.2,0,0,1-7.81-3l-.87-.49,5-5,.49.24A20.32,20.32,0,1,0,17.52,43l.24.49-5,5-.49-.87a27.09,27.09,0,0,1-3-7.81.61.61,0,0,0-.47-.48L3,37.86V30.47L8.73,29a.64.64,0,0,0,.47-.49A26.82,26.82,0,0,1,13,19.26a.62.62,0,0,0,0-.67l-3-5.07,5.22-5.23,5,3a.64.64,0,0,0,.68,0,26.84,26.84,0,0,1,9.37-3.92.64.64,0,0,0,.49-.46l1.4-5.63h7.39l1.4,5.57a.62.62,0,0,0,.49.47,26.91,26.91,0,0,1,9.48,3.91.62.62,0,0,0,.67,0l4.91-3,5.23,5.23-3,4.91a.62.62,0,0,0,0,.67,26.91,26.91,0,0,1,3.91,9.48.62.62,0,0,0,.47.49l5.57,1.4Z" fill="#dd403c"/></svg>