<svg xmlns="http://www.w3.org/2000/svg" width="155" height="38.628" viewBox="0 0 155 38.628"><defs><style>.a{fill:#fff;}</style></defs><g transform="translate(-598.287 -499.116)"><g transform="translate(630.789 510.986)"><path class="a" d="M686.774,525.462l-6.312,14.065L677.18,532.2l-3.923,7.176-6.173-13.916h2.947l3.477,7.854,2.3-4.192-1.636-3.663h2.946l3.356,7.493,3.356-7.493Z" transform="translate(-667.085 -524.886)"></path><path class="a" d="M712.785,539.119a2.694,2.694,0,0,0,1.915.734,4.068,4.068,0,0,0,.753-.075,3.782,3.782,0,0,0,2.38-1.394l1.832,1.451a5.249,5.249,0,0,1-4.212,2.482,6.987,6.987,0,0,1-.8.047,5.445,5.445,0,0,1-4.007-1.617,5.5,5.5,0,0,1,3.886-9.38,5.35,5.35,0,0,1,2.705.724,4.857,4.857,0,0,1,2.473,3.031Zm3.4-4.583a2.9,2.9,0,0,0-1.543-.595c-.068-.007-.136-.009-.2-.009a2.581,2.581,0,0,0-1.274.335,2.642,2.642,0,0,0-1.431,2.5q0,.167.009.335Z" transform="translate(-689.219 -528.001)"></path><path class="a" d="M733.381,538.3l6.684-14.055,6.684,14.055H743.8l-1.05-2.212h-5.373l-1.051,2.212Zm8.394-4.267-.827-1.738q-.279-.585-.883-2.055-.149.317-.428,1t-.437,1.022l-.846,1.766Z" transform="translate(-702.062 -524.242)"></path><path class="a" d="M771.321,534.749a2.352,2.352,0,0,0-1.747-.744,2.323,2.323,0,0,0-1.739.744,2.478,2.478,0,0,0-.725,1.794v5.522h-2.7V531.7h2.7v.725a2.864,2.864,0,0,1,2.464-1.041,4.837,4.837,0,0,1,3.718,1.609,5.371,5.371,0,0,1,1.078,1.738l-2.473.93A2.482,2.482,0,0,0,771.321,534.749Z" transform="translate(-718.434 -528.01)"></path><path class="a" d="M790.574,539.119a2.694,2.694,0,0,0,1.915.734,4.066,4.066,0,0,0,.753-.075,3.783,3.783,0,0,0,2.38-1.394l1.831,1.451a5.249,5.249,0,0,1-4.212,2.482,6.983,6.983,0,0,1-.8.047,5.446,5.446,0,0,1-4.007-1.617,5.5,5.5,0,0,1,3.886-9.38,5.351,5.351,0,0,1,2.705.724,4.857,4.857,0,0,1,2.473,3.031Zm3.4-4.583a2.908,2.908,0,0,0-1.543-.595c-.069-.007-.136-.009-.2-.009a2.581,2.581,0,0,0-1.274.335,2.641,2.641,0,0,0-1.431,2.5q0,.167.009.335Z" transform="translate(-730.259 -528.001)"></path><path class="a" d="M815.834,534.779q0,.9,1.255,1.283a4.209,4.209,0,0,0,1.153.158,4.018,4.018,0,0,0,1.153-.158q1.255-.38,1.255-1.283c0-.414-.283-.756-.846-1.023a11.383,11.383,0,0,0-1.878-.576,11.3,11.3,0,0,1-3.291-1.19,3.388,3.388,0,0,1-1.5-3.03,3.611,3.611,0,0,1,.92-2.492,4.823,4.823,0,0,1,2.268-1.357,6.456,6.456,0,0,1,1.915-.279,6.613,6.613,0,0,1,1.924.279,4.823,4.823,0,0,1,2.259,1.357,3.612,3.612,0,0,1,.921,2.492h-2.7q0-.893-1.255-1.273a4,4,0,0,0-1.153-.159v-.009a3.961,3.961,0,0,0-1.153.168q-1.255.381-1.255,1.273,0,.632.855,1.031a11.289,11.289,0,0,0,1.868.577,11.378,11.378,0,0,1,3.291,1.18,3.4,3.4,0,0,1,1.5,3.03,3.612,3.612,0,0,1-.921,2.492,4.788,4.788,0,0,1-2.259,1.366,6.589,6.589,0,0,1-1.924.279v-.01a6.624,6.624,0,0,1-1.915-.269,4.788,4.788,0,0,1-2.268-1.366,3.611,3.611,0,0,1-.92-2.492Z" transform="translate(-744.14 -524.554)"></path><path class="a" d="M844.943,542.372a4.068,4.068,0,0,1-2.8-.986v3.784h-2.7V531.7h2.7v.669a4.073,4.073,0,0,1,2.8-.986,5.494,5.494,0,1,1,0,10.989Zm-2.8-5.485a2.968,2.968,0,0,0,.818,2.1,2.7,2.7,0,0,0,3.96,0,3.119,3.119,0,0,0,0-4.212,2.681,2.681,0,0,0-3.96,0,2.933,2.933,0,0,0-.818,2.092Z" transform="translate(-758.021 -528.01)"></path><path class="a" d="M869.418,524.947a1.392,1.392,0,1,1-.985-.409A1.345,1.345,0,0,1,869.418,524.947Zm.363,3.142v10.365h-2.7V528.089Z" transform="translate(-772.577 -524.398)"></path><path class="a" d="M885.19,538.338l2.269,1.357a5.5,5.5,0,0,1-4.713,2.678,5.494,5.494,0,0,1,0-10.989,5.54,5.54,0,0,1,4.713,2.687l-2.269,1.357a3.274,3.274,0,0,0-.465-.651,2.681,2.681,0,0,0-3.96,0,3.12,3.12,0,0,0,0,4.212,2.7,2.7,0,0,0,3.96,0A3.276,3.276,0,0,0,885.19,538.338Z" transform="translate(-777.965 -528.01)"></path><path class="a" d="M911.13,532.054h2.687v10.365h.009a5.3,5.3,0,0,1-1.618,3.886,5.518,5.518,0,0,1-4.072,1.609,5.606,5.606,0,0,1-3.644-1.228,5.307,5.307,0,0,1-1.915-3.142l2.389-.5a2.832,2.832,0,0,0,.79,1.422,3.017,3.017,0,0,0,2.259.874,3.048,3.048,0,0,0,2.264-.869,2.886,2.886,0,0,0,.859-2.106c0-.087,0-.171-.009-.252v-.445a3.941,3.941,0,0,1-2.9,1.06,5.4,5.4,0,0,1-3.979-1.609,5.292,5.292,0,0,1-1.608-3.885v-5.178h2.7v5.178a2.962,2.962,0,0,0,.819,2.1,2.715,2.715,0,0,0,2.073.875,2.746,2.746,0,0,0,2.082-.875,2.963,2.963,0,0,0,.818-2.1Z" transform="translate(-791.327 -528.363)"></path></g><g transform="translate(598.287 499.116)"><path class="a" d="M602.813,511.5c-.13.288-.248.529-.35.777a7.319,7.319,0,0,0-.624,2.9,2,2,0,0,0,1.69,2.046,4.5,4.5,0,0,0,1.017.109,3.234,3.234,0,0,0,2.973-1.751,3.523,3.523,0,0,0,.392-1.322,8.127,8.127,0,0,0-.266-2.937c-.292-1.15-.636-2.286-.956-3.429-.242-.867-.5-1.731-.715-2.6a6.409,6.409,0,0,1-.1-1.952,5.586,5.586,0,0,1,.329-1.7,3.931,3.931,0,0,1,1.347-1.732,7.779,7.779,0,0,1,1.343-.785,2.338,2.338,0,0,1-.034.277,9.107,9.107,0,0,0-.365,2.308,5.453,5.453,0,0,0,.656,2.449,12.711,12.711,0,0,0,1.922,2.817c.492.554,1.01,1.085,1.52,1.623a23.6,23.6,0,0,1,3.35,4.347,13.723,13.723,0,0,1,1.317,2.913c.088.289.2.57.3.855a8.338,8.338,0,0,1,.411,1.888,8.994,8.994,0,0,1,.086,1.19,10.133,10.133,0,0,1-.837,3.878,9.86,9.86,0,0,1-3.011,3.865c-.067.052-.14.1-.21.144l-.045-.026a.845.845,0,0,1,.036-.163,12.616,12.616,0,0,0,.707-2.029,10.921,10.921,0,0,0,.345-2.023c.021-.334.044-.668.049-1a9.605,9.605,0,0,0-.814-4.024c-.35-.8-.689-1.612-1.055-2.409a5.369,5.369,0,0,0-.822-1.341,1.741,1.741,0,0,0-.381-.32.554.554,0,0,0-.856.4,7.351,7.351,0,0,0-.023,1c.045.979.191,1.951.17,2.935a4.144,4.144,0,0,1-.756,2.281,10.591,10.591,0,0,1-2.8,2.65,13.175,13.175,0,0,0-1.4,1.036,5.061,5.061,0,0,0-1.452,2.723c-.1.449-.133.913-.2,1.371-.008.06-.023.12-.044.222a9.031,9.031,0,0,1-2.9-1.706,9.879,9.879,0,0,1-1.744-13.108A8.475,8.475,0,0,1,602.813,511.5Z" transform="translate(-598.287 -499.116)"></path><path class="a" d="M618.866,566.695a4.3,4.3,0,0,1-.422.287,8.108,8.108,0,0,1-1.887.673,4.643,4.643,0,0,0-1.205.449,2.09,2.09,0,0,0-.752.687.877.877,0,0,0-.11.84c.194.505.369,1.018.552,1.529.016.045.035.089.05.134.108.312.053.485-.2.63a.524.524,0,0,1-.747-.115,6.263,6.263,0,0,1-1.1-2.314,1.412,1.412,0,0,1,.109-.932,1.729,1.729,0,0,0,.147-.887,11.294,11.294,0,0,0-.407-2.182c-.1-.378-.2-.756-.277-1.136a.7.7,0,0,1,.052-.262.662.662,0,0,1,.238.061,4.54,4.54,0,0,1,.53.446,1.674,1.674,0,0,0,1.432.446,3.7,3.7,0,0,0,.764-.174c.153-.048.212.036.263.133.123.232.234.471.348.708.069.143.138.288.2.433a.347.347,0,0,0,.315.217c.366.026.73.059,1.1.088.246.02.493.033.738.062a1.2,1.2,0,0,1,.257.091Z" transform="translate(-605.842 -533.398)"></path><path class="a" d="M628.147,550.6a5.4,5.4,0,0,1-.718,2.579c-.184.352-.405.685-.621,1.02a.569.569,0,0,1-.52.287c-.227-.009-.3-.13-.2-.334a14.384,14.384,0,0,0,.865-2.148,13.939,13.939,0,0,0,.539-2.323c.024-.173.051-.347.088-.518.011-.053.054-.132.093-.139a.18.18,0,0,1,.155.076,3.153,3.153,0,0,1,.223.624C628.109,550.013,628.118,550.309,628.147,550.6Z" transform="translate(-612.932 -525.446)"></path></g></g></svg>