<svg xmlns="http://www.w3.org/2000/svg" id="_001-bombilla" data-name="001-bombilla" width="51.851" height="73.709" viewBox="0 0 51.851 73.709"><g id="Grupo_17" data-name="Grupo 17" transform="translate(0)"><g id="Grupo_16" data-name="Grupo 16"><path id="Trazado_25" data-name="Trazado 25" d="M100.064,0A25.927,25.927,0,0,0,85.636,47.468a.59.59,0,1,0,.657-.979,24.745,24.745,0,1,1,27.465.05.59.59,0,0,0,.327,1.08.583.583,0,0,0,.326-.1A25.927,25.927,0,0,0,100.064,0Z" transform="translate(-74.138)" fill="#dd3c3c"></path></g></g><g id="Grupo_19" data-name="Grupo 19" transform="translate(17.282 55.272)"><g id="Grupo_18" data-name="Grupo 18"><path id="Trazado_26" data-name="Trazado 26" d="M208.063,374.932H191.956a.589.589,0,0,0-.59.59v8.751a7.235,7.235,0,0,0,7.074,7.37h3.132a7.326,7.326,0,0,0,7.081-7.37v-8.751A.589.589,0,0,0,208.063,374.932Zm-.589,9.341a6.133,6.133,0,0,1-5.9,6.191H198.44a6.129,6.129,0,0,1-5.894-6.191v-8.162h14.928Z" transform="translate(-191.366 -374.932)" fill="#dd3c3c"></path></g></g><g id="Grupo_21" data-name="Grupo 21" transform="translate(11.233 46.397)"><g id="Grupo_20" data-name="Grupo 20"><path id="Trazado_27" data-name="Trazado 27" d="M157.556,324.544a15.231,15.231,0,0,0-6.014-9.505c-.09-.067-.181-.134-.271-.2a.59.59,0,0,0-.686.961c.083.058.164.118.246.18a14.04,14.04,0,0,1,5.56,8.753.59.59,0,0,0,.581.495.541.541,0,0,0,.1-.008A.589.589,0,0,0,157.556,324.544Z" transform="translate(-150.338 -314.731)" fill="#dd3c3c"></path></g></g><g id="Grupo_23" data-name="Grupo 23" transform="translate(33.384 46.397)"><g id="Grupo_22" data-name="Grupo 22"><path id="Trazado_28" data-name="Trazado 28" d="M307.708,314.978a.588.588,0,0,0-.823-.136,15.191,15.191,0,0,0-6.284,9.7.59.59,0,0,0,1.164.19,14.01,14.01,0,0,1,5.807-8.934A.589.589,0,0,0,307.708,314.978Z" transform="translate(-300.593 -314.731)" fill="#dd3c3c"></path></g></g><g id="Grupo_25" data-name="Grupo 25" transform="translate(22.46 70.804)"><g id="Grupo_24" data-name="Grupo 24"><path id="Trazado_29" data-name="Trazado 29" d="M232.833,480.292a.589.589,0,0,0-.59.59v.45a.7.7,0,0,1-.575.686H228.3a.749.749,0,0,1-.633-.686v-.45a.59.59,0,1,0-1.179,0v.45A1.912,1.912,0,0,0,228.3,483.2h3.366a1.86,1.86,0,0,0,1.754-1.866v-.45A.589.589,0,0,0,232.833,480.292Z" transform="translate(-226.49 -480.292)" fill="#dd3c3c"></path></g></g><g id="Grupo_27" data-name="Grupo 27" transform="translate(15.011 27.017)"><g id="Grupo_26" data-name="Grupo 26"><path id="Trazado_30" data-name="Trazado 30" d="M184.386,211.894l-7.258-28.187a.59.59,0,0,0-1.143.294l7.258,28.187a.59.59,0,0,0,.571.443.6.6,0,0,0,.147-.018A.59.59,0,0,0,184.386,211.894Z" transform="translate(-175.967 -183.264)" fill="#dd3c3c"></path></g></g><g id="Grupo_29" data-name="Grupo 29" transform="translate(28.462 27.017)"><g id="Grupo_28" data-name="Grupo 28"><path id="Trazado_31" data-name="Trazado 31" d="M275.2,183.284a.594.594,0,0,0-.718.425L267.226,211.9a.591.591,0,0,0,.425.718.6.6,0,0,0,.147.018.591.591,0,0,0,.571-.443L275.628,184A.591.591,0,0,0,275.2,183.284Z" transform="translate(-267.208 -183.266)" fill="#dd3c3c"></path></g></g><g id="Grupo_31" data-name="Grupo 31" transform="translate(15.76 28.796)"><g id="Grupo_30" data-name="Grupo 30"><path id="Trazado_32" data-name="Trazado 32" d="M200.729,195.332a2.5,2.5,0,0,0-2.077,1.4c-.4.573-.643.9-1.108.9s-.712-.324-1.108-.9a2.238,2.238,0,0,0-4.154,0c-.4.573-.643.9-1.107.9s-.71-.324-1.106-.9a2.235,2.235,0,0,0-4.151,0c-.4.573-.643.9-1.106.9s-.71-.324-1.106-.9a2.5,2.5,0,0,0-2.076-1.405.59.59,0,1,0,0,1.179c.463,0,.71.324,1.106.9a2.236,2.236,0,0,0,4.152,0c.4-.572.643-.9,1.106-.9s.709.324,1.1.9a2.237,2.237,0,0,0,4.152,0c.4-.573.643-.9,1.107-.9s.711.324,1.107.9a2.238,2.238,0,0,0,4.155,0c.4-.572.643-.9,1.107-.9a.59.59,0,1,0,0-1.179Z" transform="translate(-181.042 -195.332)" fill="#dd3c3c"></path></g></g><g id="Grupo_33" data-name="Grupo 33" transform="translate(37.248 7.629)"><g id="Grupo_32" data-name="Grupo 32"><path id="Trazado_33" data-name="Trazado 33" d="M327.727,51.851a.59.59,0,1,0-.66.978,20.757,20.757,0,0,1,9.155,17.218.59.59,0,1,0,1.179,0A21.936,21.936,0,0,0,327.727,51.851Z" transform="translate(-326.807 -51.751)" fill="#dd3c3c"></path></g></g><g id="Grupo_35" data-name="Grupo 35" transform="translate(25.309 3.982)"><g id="Grupo_34" data-name="Grupo 34"><path id="Trazado_34" data-name="Trazado 34" d="M254.632,28.605a21.832,21.832,0,0,0-8.224-1.593.59.59,0,1,0,0,1.179A20.672,20.672,0,0,1,254.19,29.7a.59.59,0,0,0,.442-1.093Z" transform="translate(-245.818 -27.012)" fill="#dd3c3c"></path></g></g><g id="Grupo_37" data-name="Grupo 37" transform="translate(17.282 58.148)"><g id="Grupo_36" data-name="Grupo 36"><path id="Trazado_35" data-name="Trazado 35" d="M202.89,394.444H191.96a.59.59,0,0,0,0,1.179h10.93a.59.59,0,1,0,0-1.179Z" transform="translate(-191.37 -394.444)" fill="#dd3c3c"></path></g></g><g id="Grupo_39" data-name="Grupo 39" transform="translate(17.282 61.025)"><g id="Grupo_38" data-name="Grupo 38"><path id="Trazado_36" data-name="Trazado 36" d="M202.89,413.956H191.96a.59.59,0,1,0,0,1.179h10.93a.59.59,0,1,0,0-1.179Z" transform="translate(-191.37 -413.956)" fill="#dd3c3c"></path></g></g><g id="Grupo_41" data-name="Grupo 41" transform="translate(17.282 63.901)"><g id="Grupo_40" data-name="Grupo 40"><path id="Trazado_37" data-name="Trazado 37" d="M202.89,433.468H191.96a.59.59,0,1,0,0,1.179h10.93a.59.59,0,1,0,0-1.179Z" transform="translate(-191.37 -433.468)" fill="#dd3c3c"></path></g></g><g id="Grupo_43" data-name="Grupo 43" transform="translate(31.663 58.148)"><g id="Grupo_42" data-name="Grupo 42"><path id="Trazado_38" data-name="Trazado 38" d="M291.238,394.444h-1.726a.59.59,0,1,0,0,1.179h1.726a.59.59,0,1,0,0-1.179Z" transform="translate(-288.922 -394.444)" fill="#dd3c3c"></path></g></g><g id="Grupo_45" data-name="Grupo 45" transform="translate(31.663 61.025)"><g id="Grupo_44" data-name="Grupo 44"><path id="Trazado_39" data-name="Trazado 39" d="M291.238,413.956h-1.726a.59.59,0,1,0,0,1.179h1.726a.59.59,0,1,0,0-1.179Z" transform="translate(-288.922 -413.956)" fill="#dd3c3c"></path></g></g><g id="Grupo_47" data-name="Grupo 47" transform="translate(31.663 63.901)"><g id="Grupo_46" data-name="Grupo 46"><path id="Trazado_40" data-name="Trazado 40" d="M291.238,433.468h-1.726a.59.59,0,1,0,0,1.179h1.726a.59.59,0,1,0,0-1.179Z" transform="translate(-288.922 -433.468)" fill="#dd3c3c"></path></g></g><g id="Grupo_49" data-name="Grupo 49" transform="translate(17.858 66.777)"><g id="Grupo_48" data-name="Grupo 48"><path id="Trazado_41" data-name="Trazado 41" d="M210.82,452.976H195.864a.59.59,0,1,0,0,1.179H210.82a.59.59,0,0,0,0-1.179Z" transform="translate(-195.274 -452.976)" fill="#dd3c3c"></path></g></g></svg>