<svg id="Capa_1" data-name="Capa 1" xmlns="http://www.w3.org/2000/svg" viewBox="0 0 70 70"><title>03 - Cómo lo logramos - Estrategias</title><path d="M64.94,50.67H47V22.81l.38-.2A13.06,13.06,0,0,0,48.5,22l.53-.36L54,27.73l-.45.45a9.81,9.81,0,1,0,1.69-1.34l-.54.34L49.73,21l.46-.45a12,12,0,0,0,3.63-7.53l.06-.63h5l2.3,4.6h7.92L66.6,12l2.53-5.06H61.21l-2.3,4.61h-5l-.06-.64A11.94,11.94,0,0,0,34.25,2.79l-1,.8L33.1,2.35A2.76,2.76,0,0,0,30.39,0H16.57A2.75,2.75,0,0,0,14,1.84l-.17.46H5.06A5.07,5.07,0,0,0,0,7.36V64.94A5.07,5.07,0,0,0,5.06,70H41.91A5.07,5.07,0,0,0,47,64.94V60.79h18a5.06,5.06,0,1,0,0-10.12Zm-4.6-24.43A8.76,8.76,0,1,1,51.57,35,8.77,8.77,0,0,1,60.34,26.24ZM61.77,7.81h5.9l-1.85,3.71H59.91Zm4,4.61,1.85,3.7h-5.9l-1.86-3.7ZM41.91.9a11,11,0,0,1,11,9.84l.09.78H47L46.86,11a5.05,5.05,0,1,0,0,2l.12-.56h6l-.09.78A11.06,11.06,0,1,1,41.91.9Zm4.24,11.52-.34.93a4.16,4.16,0,1,1,0-2.77l.34.94H41.46v.9Zm-.08,10.79V50.67H42.36V23.93l.64-.05a11.84,11.84,0,0,0,2.17-.41ZM14.72,2.75A1.85,1.85,0,0,1,16.57.9H30.39a1.85,1.85,0,0,1,1.86,1.85V4.93l-.13.18A11.87,11.87,0,0,0,30.41,8.7l-.15.51H16.57a1.85,1.85,0,0,1-1.85-1.85ZM14,8.28a2.75,2.75,0,0,0,2.58,1.83h13.5l-.07.77c0,.42-.06.76-.06,1.09a12,12,0,0,0,3.9,8.8l.47.43-2.54,3.34-.55-.36A14.45,14.45,0,1,0,33,25.52l-.48-.43L35,21.75l.54.34a11.79,11.79,0,0,0,5.26,1.79l.64.06V50.67H34.92l-8.21,3.08a2.12,2.12,0,0,0,0,4l8.21,3.08h6.54v3.7H5.51V7.81h8.31ZM34.74,43.51l-1,1.15a13.36,13.36,0,0,1-20.61,0l-.95-1.15ZM17,42.61v-6h3.71v6Zm4.61,0V29.69h3.71V42.61Zm4.61,0V32h3.7V42.61Zm4.6,0V31.09h-4.6v-2.3H20.73V35.7H16.12v6.91H11.78l-.19-.38a13.22,13.22,0,0,1-1.48-6.08,13.37,13.37,0,0,1,26.74,0,13.21,13.21,0,0,1-1.47,6.08l-.2.38Zm3.71,9.16v7.92L27,56.87a1.22,1.22,0,0,1,0-2.28ZM46.07,64.94a4.16,4.16,0,0,1-4.16,4.16H5.06A4.16,4.16,0,0,1,.9,64.94V7.36A4.16,4.16,0,0,1,5.06,3.2h8.76V6.91H6.21a1.6,1.6,0,0,0-1.6,1.6V63.79a1.6,1.6,0,0,0,1.6,1.6H40.76a1.6,1.6,0,0,0,1.6-1.6v-3h3.71Zm13.82-5H35.45V56.18H59.89Zm0-4.61H35.45V51.57H59.89Zm5,4.61H60.79V51.57h4.15a4.16,4.16,0,0,1,0,8.32Z" fill="#dd403c"/><path d="M57.59,40.06a2.34,2.34,0,0,0,1-.25l5.49-2.74a2.32,2.32,0,0,0,0-4.14l-5.48-2.74a2.34,2.34,0,0,0-1-.25,2.32,2.32,0,0,0-2.31,2.32v5.48A2.32,2.32,0,0,0,57.59,40.06Zm-1.41-7.8a1.42,1.42,0,0,1,1.41-1.42,1.58,1.58,0,0,1,.64.15l5.48,2.75a1.41,1.41,0,0,1,0,2.52L58.23,39a1.42,1.42,0,0,1-1.36-.07,1.41,1.41,0,0,1-.69-1.2Z" fill="#dd403c"/><rect x="9.21" y="55.28" width="12.42" height="0.9" fill="#dd403c"/><rect x="9.21" y="59.89" width="12.42" height="0.9" fill="#dd403c"/><rect x="9.21" y="13.82" width="17.02" height="0.9" fill="#dd403c"/><rect x="9.21" y="18.43" width="17.02" height="0.9" fill="#dd403c"/></svg>