<svg id="Capa_1" data-name="Capa 1" xmlns="http://www.w3.org/2000/svg" viewBox="0 0 62.91 70"><title>05 - Spicy Tool - Calendario</title><path d="M50.14,34h4.94a1.61,1.61,0,0,0,1.6-1.61V27.4a1.6,1.6,0,0,0-1.6-1.6H50.14a1.61,1.61,0,0,0-1.61,1.6v4.94A1.61,1.61,0,0,0,50.14,34ZM49.76,27h5.69v5.69H49.76Z" fill="#dd403c"/><path d="M21.93,46.79h4.94a1.61,1.61,0,0,0,1.61-1.61V40.24a1.61,1.61,0,0,0-1.61-1.61H21.93a1.61,1.61,0,0,0-1.6,1.61v4.94A1.61,1.61,0,0,0,21.93,46.79Zm-.37-6.92h5.69v5.68H21.56Z" fill="#dd403c"/><path d="M7.83,46.79h4.94a1.61,1.61,0,0,0,1.61-1.61V40.24a1.61,1.61,0,0,0-1.61-1.61H7.83a1.61,1.61,0,0,0-1.6,1.61v4.94A1.61,1.61,0,0,0,7.83,46.79Zm-.37-6.92h5.68v5.68H7.46Z" fill="#dd403c"/><path d="M58.13,4.74H53.28v-2A2.74,2.74,0,0,0,50.54,0h-.48a2.74,2.74,0,0,0-2.73,2.73v2H15.58v-2A2.74,2.74,0,0,0,12.84,0h-.47A2.74,2.74,0,0,0,9.63,2.73v2H4.77A4.78,4.78,0,0,0,0,9.52V65.23A4.78,4.78,0,0,0,4.77,70H58.14a4.78,4.78,0,0,0,4.77-4.77V9.52A4.78,4.78,0,0,0,58.13,4.74Zm-9.57-2a1.51,1.51,0,0,1,1.5-1.5h.48A1.5,1.5,0,0,1,52,2.73v2H48.56Zm-37.69,0a1.47,1.47,0,0,1,.44-1.06,1.5,1.5,0,0,1,1.06-.44h.47a1.5,1.5,0,0,1,1.5,1.5v2H10.87Zm50.8,62.5a3.54,3.54,0,0,1-3.53,3.54H4.77a3.55,3.55,0,0,1-3.54-3.54v-.82l.67.48a4.74,4.74,0,0,0,2.87,1H46.85a4.74,4.74,0,0,0,3.37-1.4L61.67,53Zm-13-1,.35-1.46a3.79,3.79,0,0,0,.12-.94V54.9A2.79,2.79,0,0,1,52,52.11h6.92a4.33,4.33,0,0,0,.95-.11l1.46-.36Zm13-16.14a2.8,2.8,0,0,1-2.79,2.79H52a4,4,0,0,0-4,4v6.93a2.8,2.8,0,0,1-2.79,2.79H4.77a3.55,3.55,0,0,1-3.54-3.55V20.81H61.67Zm0-28.52H1.23v-10A3.54,3.54,0,0,1,4.77,6H9.63V9.45a2.74,2.74,0,0,0,2.74,2.73.61.61,0,0,0,.61-.61.61.61,0,0,0-.61-.62,1.5,1.5,0,0,1-1.5-1.5V6H47.33V9.45a2.73,2.73,0,0,0,2.73,2.73.61.61,0,0,0,.62-.61.62.62,0,0,0-.62-.62,1.5,1.5,0,0,1-1.5-1.5V6h9.57a3.53,3.53,0,0,1,3.54,3.54Z" fill="#dd403c"/><path d="M7.83,59.62h4.94A1.61,1.61,0,0,0,14.38,58V53.08a1.61,1.61,0,0,0-1.61-1.61H7.83a1.61,1.61,0,0,0-1.6,1.61V58A1.6,1.6,0,0,0,7.83,59.62ZM7.46,52.7h5.68v5.69H7.46Z" fill="#dd403c"/><path d="M21.93,59.62h4.94A1.61,1.61,0,0,0,28.48,58V53.08a1.61,1.61,0,0,0-1.61-1.61H21.93a1.61,1.61,0,0,0-1.6,1.61V58A1.6,1.6,0,0,0,21.93,59.62Zm-.37-6.92h5.69v5.69H21.56Z" fill="#dd403c"/><path d="M21.93,34h4.94a1.61,1.61,0,0,0,1.61-1.61V27.4a1.61,1.61,0,0,0-1.61-1.6H21.93a1.6,1.6,0,0,0-1.6,1.6v4.94A1.61,1.61,0,0,0,21.93,34ZM21.56,27h5.69v5.69H21.56Z" fill="#dd403c"/><path d="M7.83,34h4.94a1.61,1.61,0,0,0,1.61-1.61V27.4a1.61,1.61,0,0,0-1.61-1.6H7.83a1.6,1.6,0,0,0-1.6,1.6v4.94A1.61,1.61,0,0,0,7.83,34ZM7.46,27h5.68v5.69H7.46Z" fill="#dd403c"/><path d="M50.14,47.09h4.94a1.6,1.6,0,0,0,1.6-1.6V40.55a1.61,1.61,0,0,0-1.6-1.61H50.14a1.61,1.61,0,0,0-1.61,1.61v4.94A1.61,1.61,0,0,0,50.14,47.09Zm-.38-6.91h5.69v5.68H49.76Z" fill="#dd403c"/><path d="M36,34H41a1.61,1.61,0,0,0,1.6-1.61V27.4A1.6,1.6,0,0,0,41,25.8H36a1.6,1.6,0,0,0-1.6,1.6v4.94A1.61,1.61,0,0,0,36,34ZM35.66,27h5.69v5.69H35.66Z" fill="#dd403c"/><path d="M36,46.79H41a1.61,1.61,0,0,0,1.6-1.61V40.24A1.61,1.61,0,0,0,41,38.63H36a1.61,1.61,0,0,0-1.6,1.61v4.94A1.61,1.61,0,0,0,36,46.79Zm-.37-6.92h5.69v5.68H35.66Z" fill="#dd403c"/><path d="M36,59.62H41a1.6,1.6,0,0,0,1.6-1.6V53.08A1.61,1.61,0,0,0,41,51.47H36a1.61,1.61,0,0,0-1.6,1.61V58A1.6,1.6,0,0,0,36,59.62Zm-.37-6.92h5.69v5.69H35.66Z" fill="#dd403c"/></svg>